<svg
        width="92"
        height="138"
        viewBox="0 0 92 138"
        fill="none"
        xmlns="http://www.w3.org/2000/svg"
>
<path
d="M44.7262 88.8458V63.1928H49.336V89.3673C51.8446 86.7026 54.3912 84.7346 55.7807 81.3733C60.0555 71.0954 67.9277 64.9362 78.9213 62.8959C82.7089 62.1916 87.4139 62.5152 91.7154 63.7029C91.3119 65.3093 91.0569 66.988 90.4669 68.5449C87.117 77.3878 80.5277 82.8846 71.86 86.0555C67.7336 87.5782 63.4587 88.4042 58.9859 87.9588C57.9596 87.9261 56.9572 88.2716 56.169 88.9295C54.193 90.6527 52.348 92.5206 50.6493 94.5177C49.9038 95.4761 49.4754 96.643 49.4236 97.8561C49.2865 102.108 49.3741 106.368 49.3665 110.62C49.3665 112.211 48.4338 113.284 47.0635 113.319C45.6931 113.353 44.7795 112.348 44.7795 110.654C44.7795 106.303 44.8289 101.952 44.7376 97.6011C44.7186 96.6723 44.4369 95.5303 43.8468 94.8641C41.8959 92.6403 39.811 90.5377 37.6039 88.5679C36.9873 88.0274 35.7349 88.0197 34.787 88.0654C23.1615 88.6364 8.90179 81.8606 3.95315 69.2149C3.38596 67.7684 3.09665 66.2115 2.67792 64.7078C2.44571 63.878 2.73502 63.5658 3.61055 63.3793C18.1291 60.1513 31.8787 66.7748 37.9008 80.2884C39.4578 83.7944 41.5248 86.577 44.7262 88.8458Z"
fill="#e8e4d6"
/>
<path
d="M51.3833 28.565L42.9668 21.9681C44.6646 20.5863 46.9524 20.0038 49.2744 19.5509C50.2946 19.3529 51.3757 19.4328 52.3883 19.2044C52.943 19.0416 53.4262 18.6954 53.7586 18.2223C57.6414 12.7979 62.6662 8.99121 69.2022 7.38481C71.7565 6.70784 74.4581 6.84085 76.9335 7.76547C79.6743 8.81611 81.0828 11.4503 80.1692 14.2368C79.6144 15.7961 78.8567 17.2757 77.9156 18.6373C76.3511 21.0088 75.4147 23.525 75.4489 26.3914C75.487 29.7755 75.6621 33.171 75.4489 36.5437C75.0683 42.5354 72.2932 47.4345 67.9384 51.4506C63.3704 55.6607 57.7785 57.4308 51.7259 58.0132C50.6372 58.1198 49.5295 58.135 48.4522 58.3101C47.2302 58.5043 46.8039 57.9028 46.4879 56.8484C44.0022 48.508 46.1492 41.2982 51.684 34.8498C56.0236 29.7983 61.3643 25.9574 66.7622 22.1736C67.545 21.6332 68.2914 21.0419 68.9967 20.4035C69.8608 19.6156 70.1958 18.5649 69.5068 17.5752C68.7759 16.5284 67.6034 16.6997 66.6632 17.244C64.9823 18.2329 63.3593 19.317 61.8021 20.4911C58.201 23.2052 54.657 25.9993 51.3833 28.565Z"
fill="#e8e4d6"
/>
<path
d="M30.5534 7.37703L27.1541 15.4738C26.2367 15.0208 25.4259 14.4003 24.5313 14.248C24.1571 14.1973 23.7764 14.2301 23.4164 14.3439C23.0564 14.4578 22.726 14.6499 22.4491 14.9066C22.1065 15.3253 22.1293 16.4939 22.4795 16.9469C23.1937 17.8933 24.1124 18.6663 25.167 19.2081C28.6349 20.8449 32.1674 22.3524 35.7152 23.8141C39.4153 25.3368 43.0316 27.0117 46.0579 29.703C46.8687 30.4225 47.5806 31.2599 48.3876 32.1088C45.3422 35.8317 43.0126 39.7754 41.9543 44.3548C40.8961 48.9342 41.2158 53.4222 42.6852 58.0244C39.1058 57.8876 35.5908 57.0306 32.3502 55.5044C22.5975 50.8223 17.3786 40.8717 18.8213 30.1141C19.3771 25.9649 18.8594 21.9451 16.2214 18.4239C14.9918 16.7794 14.0326 14.9979 14.0097 12.8205C13.9831 10.3653 15.1517 8.73601 17.3101 7.80719C20.3059 6.52054 23.4845 6.86694 26.6211 7.00779C27.8507 7.06108 29.0802 7.23238 30.5534 7.37703Z"
fill="#006925"
/>
<path
d="M91.2621 133.151C91.2621 135.374 90.0288 136.6 87.8133 136.603H61.1401C58.8561 136.603 57.5999 135.393 57.5923 133.086C57.5695 123.767 57.5695 114.447 57.5923 105.126C57.5923 102.842 58.9475 101.666 61.5436 101.662C69.5376 101.662 87.1205 101.624 87.9275 101.685C90.0554 101.853 91.2774 103.208 91.2812 105.332C91.2697 110.018 91.2697 128.564 91.2621 133.151ZM86.009 131.248V107.026H62.6666V131.259L86.009 131.248Z"
fill="#006925"
/>
<path
d="M44.4695 119.641C45.1154 119.601 45.7563 119.778 46.2897 120.144C46.8232 120.51 47.2183 121.045 47.412 121.663C47.9031 122.923 47.412 123.989 46.4299 124.681C45.7464 125.11 44.9528 125.331 44.1459 125.317C30.5207 125.35 16.8954 125.35 3.27014 125.317C1.23739 125.317 0.0192636 124.236 0.000230337 122.519C-0.0188029 120.681 1.14222 119.638 3.30059 119.638C10.1449 119.641 37.5871 119.668 44.4695 119.641Z"
fill="#006925"
/>
<path
d="M3.58697 137.464C1.47047 137.464 0.160984 136.303 0.19905 134.46C0.237117 132.618 1.49331 131.468 3.62503 131.468C13.6517 131.468 23.6759 131.468 33.6976 131.468C35.8445 131.468 37.3405 132.713 37.2987 134.514C37.2568 136.15 35.7988 137.559 33.6633 137.517C28.6537 137.388 8.60032 137.471 3.58697 137.464Z"
fill="#006925"
/>
<path
d="M3.43086 107.658C1.39811 107.658 0.263733 106.611 0.27896 104.825C0.294187 103.04 1.51231 101.932 3.46132 101.932C13.6454 101.932 23.8269 101.932 34.0059 101.932C35.9282 101.932 37.3557 103.265 37.31 104.932C37.2644 106.599 36.05 107.658 33.9754 107.661C28.8593 107.669 8.49751 107.673 3.43086 107.658Z"
fill="#006925"
/>
<path
d="M62.4044 5.68247L56.3137 9.10845C53.4751 6.58644 49.755 5.28803 45.9635 5.49594C43.4848 5.56132 41.057 6.21361 38.8793 7.39926C37.8401 7.98548 36.9265 8.16059 35.834 7.60863C35.0218 7.28416 34.1856 7.02326 33.333 6.82827C34.5169 3.85908 36.8465 2.19177 39.6825 1.27437C45.6094 -0.628949 51.5212 -0.457652 57.1931 2.17655C59.0089 3.0102 60.5544 4.41105 62.4044 5.68247Z"
fill="#006925"
/>
<path
d="M52.7404 12.2944C51.7393 14.5442 49.8816 15.2522 47.5634 15.5529C44.3618 15.9051 41.3915 17.3903 39.1888 19.7402C39.0065 19.887 38.7929 19.9898 38.5644 20.0406C38.336 20.0915 38.099 20.089 37.8717 20.0333C35.8656 19.3253 33.8937 18.5107 31.9028 17.7494C36.8591 11.83 47.7423 7.6846 52.7404 12.2944Z"
fill="#006925"
/>
</svg>